STARTFONT 2.1
FONT -Bitstream-Terminal-Medium-R-Narrow--18-140-100-100-C-70-ISO8859-1
SIZE 14 100 100
FONTBOUNDINGBOX 7 19 0 -4

STARTPROPERTIES 25
CHARSET_REGISTRY "ISO8859"
CHARSET_ENCODING "1"
CAP_HEIGHT 11
X_HEIGHT 9
AVERAGE_WIDTH 70
FONTNAME_REGISTRY ""
FAMILY_NAME "Terminal"
FOUNDRY "Bitstream"
WEIGHT_NAME "Medium"
SETWIDTH_NAME "Narrow"
SLANT "R"
ADD_STYLE_NAME ""
PIXEL_SIZE 18
POINT_SIZE 140
RESOLUTION_X 100
RESOLUTION_Y 100
SPACING "C"
CHARSET_COLLECTIONS "ASCII ISO8859-1"
FULL_NAME "Terminal Narrow"
COPYRIGHT "Copyright (c) 1988 Bitstream, Inc., Copyright 1990 Digital Equipment Corp. All rights reserved."
WEIGHT 10
QUAD_WIDTH 7
DEFAULT_CHAR 159
FONT_DESCENT 5
FONT_ASCENT 15
ENDPROPERTIES

CHARS 194

STARTCHAR space
ENCODING 32
SWIDTH 360 0
DWIDTH 7 0
BBX 1 1 0 0
BITMAP
00
ENDCHAR

STARTCHAR exclam
ENCODING 33
SWIDTH 360 0
DWIDTH 7 0
BBX 3 11 2 0
BITMAP
40
40
40
40
40
40
40
00
40
E0
40
ENDCHAR

STARTCHAR quotedbl
ENCODING 34
SWIDTH 360 0
DWIDTH 7 0
BBX 3 4 2 9
BITMAP
A0
A0
A0
A0
ENDCHAR

STARTCHAR numbersign
ENCODING 35
SWIDTH 360 0
DWIDTH 7 0
BBX 5 12 1 -1
BITMAP
50
50
50
50
F8
50
50
F8
50
50
50
50
ENDCHAR

STARTCHAR dollar
ENCODING 36
SWIDTH 360 0
DWIDTH 7 0
BBX 4 16 2 -3
BITMAP
20
20
70
90
90
80
40
60
10
10
90
90
E0
40
40
40
ENDCHAR

STARTCHAR percent
ENCODING 37
SWIDTH 360 0
DWIDTH 7 0
BBX 5 11 1 0
BITMAP
40
A0
A0
A8
50
20
50
A8
28
28
10
ENDCHAR

STARTCHAR ampersand
ENCODING 38
SWIDTH 360 0
DWIDTH 7 0
BBX 5 11 1 0
BITMAP
30
50
40
40
40
A8
A8
90
90
90
68
ENDCHAR

STARTCHAR quoteright
ENCODING 39
SWIDTH 360 0
DWIDTH 7 0
BBX 2 4 3 9
BITMAP
40
40
80
80
ENDCHAR

STARTCHAR parenleft
ENCODING 40
SWIDTH 360 0
DWIDTH 7 0
BBX 3 13 2 -1
BITMAP
20
40
40
80
80
80
80
80
80
80
40
40
20
ENDCHAR

STARTCHAR parenright
ENCODING 41
SWIDTH 360 0
DWIDTH 7 0
BBX 3 13 2 -1
BITMAP
80
40
40
20
20
20
20
20
20
20
40
40
80
ENDCHAR

STARTCHAR asterisk
ENCODING 42
SWIDTH 360 0
DWIDTH 7 0
BBX 5 6 1 3
BITMAP
20
A8
70
20
50
88
ENDCHAR

STARTCHAR plus
ENCODING 43
SWIDTH 360 0
DWIDTH 7 0
BBX 5 7 1 2
BITMAP
20
20
20
F8
20
20
20
ENDCHAR

STARTCHAR comma
ENCODING 44
SWIDTH 360 0
DWIDTH 7 0
BBX 3 4 2 -2
BITMAP
60
40
80
80
ENDCHAR

STARTCHAR minus
ENCODING 45
SWIDTH 360 0
DWIDTH 7 0
BBX 5 1 1 5
BITMAP
F8
ENDCHAR

STARTCHAR period
ENCODING 46
SWIDTH 360 0
DWIDTH 7 0
BBX 3 3 2 0
BITMAP
40
E0
40
ENDCHAR

STARTCHAR slash
ENCODING 47
SWIDTH 360 0
DWIDTH 7 0
BBX 4 13 2 -1
BITMAP
10
10
10
20
20
20
40
40
40
40
80
80
80
ENDCHAR

STARTCHAR zero
ENCODING 48
SWIDTH 360 0
DWIDTH 7 0
BBX 5 11 1 0
BITMAP
20
50
50
88
88
88
88
88
50
50
20
ENDCHAR

STARTCHAR one
ENCODING 49
SWIDTH 360 0
DWIDTH 7 0
BBX 5 11 1 0
BITMAP
20
60
A0
20
20
20
20
20
20
20
F8
ENDCHAR

STARTCHAR two
ENCODING 50
SWIDTH 360 0
DWIDTH 7 0
BBX 4 11 2 0
BITMAP
60
90
90
10
10
20
20
40
40
90
F0
ENDCHAR

STARTCHAR three
ENCODING 51
SWIDTH 360 0
DWIDTH 7 0
BBX 4 11 1 0
BITMAP
60
90
10
10
10
60
10
10
10
90
60
ENDCHAR

STARTCHAR four
ENCODING 52
SWIDTH 360 0
DWIDTH 7 0
BBX 5 11 1 0
BITMAP
10
30
30
50
50
90
90
F8
10
10
38
ENDCHAR

STARTCHAR five
ENCODING 53
SWIDTH 360 0
DWIDTH 7 0
BBX 4 11 2 0
BITMAP
F0
80
80
80
E0
90
10
10
10
90
60
ENDCHAR

STARTCHAR six
ENCODING 54
SWIDTH 360 0
DWIDTH 7 0
BBX 4 11 2 0
BITMAP
30
40
40
80
E0
90
90
90
90
90
60
ENDCHAR

STARTCHAR seven
ENCODING 55
SWIDTH 360 0
DWIDTH 7 0
BBX 4 11 2 0
BITMAP
F0
90
10
10
20
20
20
40
40
40
40
ENDCHAR

STARTCHAR eight
ENCODING 56
SWIDTH 360 0
DWIDTH 7 0
BBX 4 11 2 0
BITMAP
60
90
90
90
90
60
90
90
90
90
60
ENDCHAR

STARTCHAR nine
ENCODING 57
SWIDTH 360 0
DWIDTH 7 0
BBX 4 11 2 0
BITMAP
60
90
90
90
90
90
70
10
10
20
C0
ENDCHAR

STARTCHAR colon
ENCODING 58
SWIDTH 360 0
DWIDTH 7 0
BBX 3 8 2 0
BITMAP
40
E0
40
00
00
40
E0
40
ENDCHAR

STARTCHAR semicolon
ENCODING 59
SWIDTH 360 0
DWIDTH 7 0
BBX 3 10 2 -2
BITMAP
40
E0
40
00
00
00
60
40
80
80
ENDCHAR

STARTCHAR less
ENCODING 60
SWIDTH 360 0
DWIDTH 7 0
BBX 5 9 1 1
BITMAP
08
10
20
40
80
40
20
10
08
ENDCHAR

STARTCHAR equal
ENCODING 61
SWIDTH 360 0
DWIDTH 7 0
BBX 5 4 1 4
BITMAP
F8
00
00
F8
ENDCHAR

STARTCHAR greater
ENCODING 62
SWIDTH 360 0
DWIDTH 7 0
BBX 5 9 1 1
BITMAP
80
40
20
10
08
10
20
40
80
ENDCHAR

STARTCHAR question
ENCODING 63
SWIDTH 360 0
DWIDTH 7 0
BBX 5 11 1 0
BITMAP
70
88
88
08
10
20
20
00
20
70
20
ENDCHAR

STARTCHAR at
ENCODING 64
SWIDTH 360 0
DWIDTH 7 0
BBX 6 13 1 -2
BITMAP
70
88
88
88
98
A8
A8
A8
9C
80
80
44
38
ENDCHAR

STARTCHAR A
ENCODING 65
SWIDTH 360 0
DWIDTH 7 0
BBX 7 11 0 0
BITMAP
10
10
28
28
28
44
44
7C
44
44
C6
ENDCHAR

STARTCHAR B
ENCODING 66
SWIDTH 360 0
DWIDTH 7 0
BBX 6 11 1 0
BITMAP
F8
44
44
44
44
78
44
44
44
44
F8
ENDCHAR

STARTCHAR C
ENCODING 67
SWIDTH 360 0
DWIDTH 7 0
BBX 5 11 1 0
BITMAP
68
98
88
80
80
80
80
80
80
88
70
ENDCHAR

STARTCHAR D
ENCODING 68
SWIDTH 360 0
DWIDTH 7 0
BBX 6 11 1 0
BITMAP
F8
44
44
44
44
44
44
44
44
44
F8
ENDCHAR

STARTCHAR E
ENCODING 69
SWIDTH 360 0
DWIDTH 7 0
BBX 6 11 1 0
BITMAP
FC
44
44
40
48
78
48
40
44
44
FC
ENDCHAR

STARTCHAR F
ENCODING 70
SWIDTH 360 0
DWIDTH 7 0
BBX 6 11 1 0
BITMAP
FC
44
44
40
48
78
48
40
40
40
E0
ENDCHAR

STARTCHAR G
ENCODING 71
SWIDTH 360 0
DWIDTH 7 0
BBX 6 11 1 0
BITMAP
68
98
88
80
80
80
9C
88
88
88
78
ENDCHAR

STARTCHAR H
ENCODING 72
SWIDTH 360 0
DWIDTH 7 0
BBX 7 11 0 0
BITMAP
EE
44
44
44
44
7C
44
44
44
44
EE
ENDCHAR

STARTCHAR I
ENCODING 73
SWIDTH 360 0
DWIDTH 7 0
BBX 5 11 1 0
BITMAP
F8
20
20
20
20
20
20
20
20
20
F8
ENDCHAR

STARTCHAR J
ENCODING 74
SWIDTH 360 0
DWIDTH 7 0
BBX 6 11 1 0
BITMAP
3C
08
08
08
08
08
08
88
88
88
70
ENDCHAR

STARTCHAR K
ENCODING 75
SWIDTH 360 0
DWIDTH 7 0
BBX 7 11 0 0
BITMAP
E6
44
48
48
50
70
48
48
44
44
E6
ENDCHAR

STARTCHAR L
ENCODING 76
SWIDTH 360 0
DWIDTH 7 0
BBX 6 11 1 0
BITMAP
E0
40
40
40
40
40
40
40
44
44
FC
ENDCHAR

STARTCHAR M
ENCODING 77
SWIDTH 360 0
DWIDTH 7 0
BBX 7 11 0 0
BITMAP
C6
44
6C
6C
54
54
54
44
44
44
EE
ENDCHAR

STARTCHAR N
ENCODING 78
SWIDTH 360 0
DWIDTH 7 0
BBX 7 11 0 0
BITMAP
CE
44
64
64
54
54
54
4C
4C
44
E4
ENDCHAR

STARTCHAR O
ENCODING 79
SWIDTH 360 0
DWIDTH 7 0
BBX 5 11 1 0
BITMAP
70
88
88
88
88
88
88
88
88
88
70
ENDCHAR

STARTCHAR P
ENCODING 80
SWIDTH 360 0
DWIDTH 7 0
BBX 6 11 1 0
BITMAP
F8
44
44
44
44
44
78
40
40
40
F0
ENDCHAR

STARTCHAR Q
ENCODING 81
SWIDTH 360 0
DWIDTH 7 0
BBX 5 14 1 -3
BITMAP
70
88
88
88
88
88
88
88
88
88
70
40
68
90
ENDCHAR

STARTCHAR R
ENCODING 82
SWIDTH 360 0
DWIDTH 7 0
BBX 7 11 0 0
BITMAP
F8
44
44
44
44
78
48
48
44
44
E6
ENDCHAR

STARTCHAR S
ENCODING 83
SWIDTH 360 0
DWIDTH 7 0
BBX 5 11 1 0
BITMAP
78
88
88
80
80
70
08
08
88
88
F0
ENDCHAR

STARTCHAR T
ENCODING 84
SWIDTH 360 0
DWIDTH 7 0
BBX 7 11 0 0
BITMAP
FE
92
92
92
10
10
10
10
10
10
38
ENDCHAR

STARTCHAR U
ENCODING 85
SWIDTH 360 0
DWIDTH 7 0
BBX 7 11 0 0
BITMAP
EE
44
44
44
44
44
44
44
44
44
38
ENDCHAR

STARTCHAR V
ENCODING 86
SWIDTH 360 0
DWIDTH 7 0
BBX 7 11 0 0
BITMAP
C6
44
44
44
44
28
28
28
28
10
10
ENDCHAR

STARTCHAR W
ENCODING 87
SWIDTH 360 0
DWIDTH 7 0
BBX 7 11 0 0
BITMAP
C6
82
92
92
92
AA
AA
AA
44
44
44
ENDCHAR

STARTCHAR X
ENCODING 88
SWIDTH 360 0
DWIDTH 7 0
BBX 7 11 0 0
BITMAP
C6
44
28
28
10
10
28
28
44
44
C6
ENDCHAR

STARTCHAR Y
ENCODING 89
SWIDTH 360 0
DWIDTH 7 0
BBX 7 11 0 0
BITMAP
EE
44
44
44
28
28
10
10
10
10
38
ENDCHAR

STARTCHAR Z
ENCODING 90
SWIDTH 360 0
DWIDTH 7 0
BBX 5 11 1 0
BITMAP
F8
88
90
10
20
20
20
40
48
88
F8
ENDCHAR

STARTCHAR bracketleft
ENCODING 91
SWIDTH 360 0
DWIDTH 7 0
BBX 3 13 2 -1
BITMAP
E0
80
80
80
80
80
80
80
80
80
80
80
E0
ENDCHAR

STARTCHAR backslash
ENCODING 92
SWIDTH 360 0
DWIDTH 7 0
BBX 4 13 1 -1
BITMAP
80
80
80
40
40
40
20
20
20
20
10
10
10
ENDCHAR

STARTCHAR bracketright
ENCODING 93
SWIDTH 360 0
DWIDTH 7 0
BBX 3 13 2 -1
BITMAP
E0
20
20
20
20
20
20
20
20
20
20
20
E0
ENDCHAR

STARTCHAR asciicircum
ENCODING 94
SWIDTH 360 0
DWIDTH 7 0
BBX 5 3 1 6
BITMAP
20
70
88
ENDCHAR

STARTCHAR underscore
ENCODING 95
SWIDTH 360 0
DWIDTH 7 0
BBX 6 1 1 0
BITMAP
FC
ENDCHAR

STARTCHAR quoteleft
ENCODING 96
SWIDTH 360 0
DWIDTH 7 0
BBX 3 4 2 9
BITMAP
C0
40
20
20
ENDCHAR

STARTCHAR a
ENCODING 97
SWIDTH 360 0
DWIDTH 7 0
BBX 6 9 1 0
BITMAP
70
88
08
78
88
88
88
98
6C
ENDCHAR

STARTCHAR b
ENCODING 98
SWIDTH 360 0
DWIDTH 7 0
BBX 6 12 0 0
BITMAP
C0
40
40
58
64
44
44
44
44
44
64
D8
ENDCHAR

STARTCHAR c
ENCODING 99
SWIDTH 360 0
DWIDTH 7 0
BBX 5 9 1 0
BITMAP
68
98
88
80
80
80
80
88
70
ENDCHAR

STARTCHAR d
ENCODING 100
SWIDTH 360 0
DWIDTH 7 0
BBX 6 12 1 0
BITMAP
18
08
08
68
98
88
88
88
88
88
98
6C
ENDCHAR

STARTCHAR e
ENCODING 101
SWIDTH 360 0
DWIDTH 7 0
BBX 5 9 1 0
BITMAP
70
88
88
88
F8
80
80
88
70
ENDCHAR

STARTCHAR f
ENCODING 102
SWIDTH 360 0
DWIDTH 7 0
BBX 5 12 1 0
BITMAP
18
20
20
F8
20
20
20
20
20
20
20
F8
ENDCHAR

STARTCHAR g
ENCODING 103
SWIDTH 360 0
DWIDTH 7 0
BBX 6 12 1 -3
BITMAP
6C
98
88
88
88
88
88
98
68
08
08
F0
ENDCHAR

STARTCHAR h
ENCODING 104
SWIDTH 360 0
DWIDTH 7 0
BBX 7 12 0 0
BITMAP
C0
40
40
58
64
44
44
44
44
44
44
C6
ENDCHAR

STARTCHAR i
ENCODING 105
SWIDTH 360 0
DWIDTH 7 0
BBX 5 13 1 0
BITMAP
20
20
00
00
E0
20
20
20
20
20
20
20
F8
ENDCHAR

STARTCHAR j
ENCODING 106
SWIDTH 360 0
DWIDTH 7 0
BBX 4 16 1 -3
BITMAP
10
10
00
00
F0
10
10
10
10
10
10
10
10
10
10
E0
ENDCHAR

STARTCHAR k
ENCODING 107
SWIDTH 360 0
DWIDTH 7 0
BBX 6 12 1 0
BITMAP
C0
40
40
4C
48
50
60
50
50
48
48
CC
ENDCHAR

STARTCHAR l
ENCODING 108
SWIDTH 360 0
DWIDTH 7 0
BBX 5 12 1 0
BITMAP
E0
20
20
20
20
20
20
20
20
20
20
F8
ENDCHAR

STARTCHAR m
ENCODING 109
SWIDTH 360 0
DWIDTH 7 0
BBX 7 9 0 0
BITMAP
EE
92
92
92
92
92
92
92
92
ENDCHAR

STARTCHAR n
ENCODING 110
SWIDTH 360 0
DWIDTH 7 0
BBX 7 9 0 0
BITMAP
D8
64
44
44
44
44
44
44
C6
ENDCHAR

STARTCHAR o
ENCODING 111
SWIDTH 360 0
DWIDTH 7 0
BBX 5 9 1 0
BITMAP
70
88
88
88
88
88
88
88
70
ENDCHAR

STARTCHAR p
ENCODING 112
SWIDTH 360 0
DWIDTH 7 0
BBX 6 12 0 -3
BITMAP
D8
64
44
44
44
44
44
64
58
40
40
F0
ENDCHAR

STARTCHAR q
ENCODING 113
SWIDTH 360 0
DWIDTH 7 0
BBX 6 12 1 -3
BITMAP
6C
98
88
88
88
88
88
98
68
08
08
3C
ENDCHAR

STARTCHAR r
ENCODING 114
SWIDTH 360 0
DWIDTH 7 0
BBX 6 9 1 0
BITMAP
DC
64
40
40
40
40
40
40
F0
ENDCHAR

STARTCHAR s
ENCODING 115
SWIDTH 360 0
DWIDTH 7 0
BBX 5 9 1 0
BITMAP
78
88
88
80
70
08
88
88
F0
ENDCHAR

STARTCHAR t
ENCODING 116
SWIDTH 360 0
DWIDTH 7 0
BBX 6 12 1 0
BITMAP
40
40
40
F8
40
40
40
40
40
40
44
38
ENDCHAR

STARTCHAR u
ENCODING 117
SWIDTH 360 0
DWIDTH 7 0
BBX 7 9 0 0
BITMAP
CC
44
44
44
44
44
44
4C
36
ENDCHAR

STARTCHAR v
ENCODING 118
SWIDTH 360 0
DWIDTH 7 0
BBX 7 9 0 0
BITMAP
C6
44
44
44
28
28
28
10
10
ENDCHAR

STARTCHAR w
ENCODING 119
SWIDTH 360 0
DWIDTH 7 0
BBX 7 9 0 0
BITMAP
C6
82
82
92
92
92
6C
44
44
ENDCHAR

STARTCHAR x
ENCODING 120
SWIDTH 360 0
DWIDTH 7 0
BBX 7 9 0 0
BITMAP
C6
44
28
28
10
28
28
44
C6
ENDCHAR

STARTCHAR y
ENCODING 121
SWIDTH 360 0
DWIDTH 7 0
BBX 7 12 0 -3
BITMAP
C6
44
44
44
28
28
28
10
10
20
20
F0
ENDCHAR

STARTCHAR z
ENCODING 122
SWIDTH 360 0
DWIDTH 7 0
BBX 5 9 1 0
BITMAP
F8
88
90
10
20
40
48
88
F8
ENDCHAR

STARTCHAR braceleft
ENCODING 123
SWIDTH 360 0
DWIDTH 7 0
BBX 4 13 2 -1
BITMAP
10
20
20
20
20
20
C0
20
20
20
20
20
10
ENDCHAR

STARTCHAR bar
ENCODING 124
SWIDTH 360 0
DWIDTH 7 0
BBX 1 14 3 -2
BITMAP
80
80
80
80
80
80
80
80
80
80
80
80
80
80
ENDCHAR

STARTCHAR braceright
ENCODING 125
SWIDTH 360 0
DWIDTH 7 0
BBX 4 13 2 -1
BITMAP
80
40
40
40
40
40
30
40
40
40
40
40
80
ENDCHAR

STARTCHAR asciitilde
ENCODING 126
SWIDTH 360 0
DWIDTH 7 0
BBX 5 3 1 6
BITMAP
48
A8
90
ENDCHAR

STARTCHAR OE
ENCODING 128
SWIDTH 360 0
DWIDTH 7 0
BBX 7 11 0 0
BITMAP
7E
92
92
90
94
9C
94
90
92
92
7E
ENDCHAR

STARTCHAR oe
ENCODING 129
SWIDTH 360 0
DWIDTH 7 0
BBX 7 9 0 0
BITMAP
6C
92
92
92
9E
90
90
92
6C
ENDCHAR

STARTCHAR Ydieresis
ENCODING 130
SWIDTH 360 0
DWIDTH 7 0
BBX 7 15 0 0
BITMAP
44
44
00
00
EE
44
44
44
28
28
10
10
10
10
7C
ENDCHAR

STARTCHAR Error
ENCODING 159
SWIDTH 360 0
DWIDTH 7 0
BBX 6 17 0 -3
BITMAP
78
CC
84
84
80
80
40
20
10
10
10
10
00
00
10
38
10
ENDCHAR

STARTCHAR exclamdown
ENCODING 161
SWIDTH 360 0
DWIDTH 7 0
BBX 3 12 2 -1
BITMAP
40
E0
40
00
40
40
40
40
40
40
40
40
ENDCHAR

STARTCHAR cent
ENCODING 162
SWIDTH 360 0
DWIDTH 7 0
BBX 5 12 1 -1
BITMAP
20
20
78
88
88
80
80
80
88
70
20
20
ENDCHAR

STARTCHAR sterling
ENCODING 163
SWIDTH 360 0
DWIDTH 7 0
BBX 6 11 1 0
BITMAP
30
48
48
40
20
F8
20
20
20
64
98
ENDCHAR

STARTCHAR currency
ENCODING 164
SWIDTH 360 0
DWIDTH 7 0
BBX 5 7 1 2
BITMAP
88
70
88
88
88
70
88
ENDCHAR

STARTCHAR yen
ENCODING 165
SWIDTH 360 0
DWIDTH 7 0
BBX 7 11 0 0
BITMAP
EE
44
44
EE
28
28
FE
10
10
10
38
ENDCHAR

STARTCHAR brokenbar
ENCODING 166
SWIDTH 360 0
DWIDTH 7 0
BBX 1 15 3 -3
BITMAP
80
80
80
80
80
80
00
00
00
80
80
80
80
80
80
ENDCHAR

STARTCHAR section
ENCODING 167
SWIDTH 360 0
DWIDTH 7 0
BBX 5 13 1 -2
BITMAP
38
48
40
40
A0
90
88
48
28
10
10
90
E0
ENDCHAR

STARTCHAR dieresis
ENCODING 168
SWIDTH 360 0
DWIDTH 7 0
BBX 5 2 1 11
BITMAP
88
88
ENDCHAR

STARTCHAR copyright
ENCODING 169
SWIDTH 360 0
DWIDTH 7 0
BBX 7 10 0 0
BITMAP
38
44
92
AA
A2
A2
AA
92
44
38
ENDCHAR

STARTCHAR ordfeminine
ENCODING 170
SWIDTH 360 0
DWIDTH 7 0
BBX 5 9 1 4
BITMAP
70
08
78
88
98
68
00
00
F8
ENDCHAR

STARTCHAR guillemotleft
ENCODING 171
SWIDTH 360 0
DWIDTH 7 0
BBX 5 7 1 0
BITMAP
48
48
90
90
90
48
48
ENDCHAR

STARTCHAR logicalnot
ENCODING 172
SWIDTH 360 0
DWIDTH 7 0
BBX 5 4 1 3
BITMAP
F8
08
08
08
ENDCHAR

STARTCHAR hyphen
ENCODING 173
SWIDTH 360 0
DWIDTH 7 0
BBX 5 1 1 4
BITMAP
F8
ENDCHAR

STARTCHAR registered
ENCODING 174
SWIDTH 360 0
DWIDTH 7 0
BBX 7 10 0 0
BITMAP
38
44
BA
AA
AA
B2
AA
AA
44
38
ENDCHAR

STARTCHAR macron
ENCODING 175
SWIDTH 360 0
DWIDTH 7 0
BBX 3 1 2 11
BITMAP
E0
ENDCHAR

STARTCHAR degree
ENCODING 176
SWIDTH 360 0
DWIDTH 7 0
BBX 4 4 2 8
BITMAP
60
90
90
60
ENDCHAR

STARTCHAR plusminus
ENCODING 177
SWIDTH 360 0
DWIDTH 7 0
BBX 5 10 1 0
BITMAP
20
20
20
F8
20
20
20
00
00
F8
ENDCHAR

STARTCHAR twosuperior
ENCODING 178
SWIDTH 360 0
DWIDTH 7 0
BBX 5 7 1 6
BITMAP
70
88
08
10
20
48
F8
ENDCHAR

STARTCHAR threesuperior
ENCODING 179
SWIDTH 360 0
DWIDTH 7 0
BBX 5 7 1 6
BITMAP
70
88
08
30
08
88
70
ENDCHAR

STARTCHAR acute
ENCODING 180
SWIDTH 360 0
DWIDTH 7 0
BBX 4 3 2 11
BITMAP
30
40
80
ENDCHAR

STARTCHAR mu
ENCODING 181
SWIDTH 360 0
DWIDTH 7 0
BBX 6 13 1 -4
BITMAP
24
24
24
24
48
48
48
48
74
80
80
80
80
ENDCHAR

STARTCHAR paragraph
ENCODING 182
SWIDTH 360 0
DWIDTH 7 0
BBX 6 13 1 -2
BITMAP
7C
E8
E8
E8
E8
E8
68
28
28
28
28
28
6C
ENDCHAR

STARTCHAR periodcentered
ENCODING 183
SWIDTH 360 0
DWIDTH 7 0
BBX 3 3 2 4
BITMAP
40
E0
40
ENDCHAR

STARTCHAR cedilla
ENCODING 184
SWIDTH 360 0
DWIDTH 7 0
BBX 4 4 2 -4
BITMAP
40
20
10
E0
ENDCHAR

STARTCHAR onesuperior
ENCODING 185
SWIDTH 360 0
DWIDTH 7 0
BBX 3 7 2 6
BITMAP
C0
40
40
40
40
40
E0
ENDCHAR

STARTCHAR ordmasculine
ENCODING 186
SWIDTH 360 0
DWIDTH 7 0
BBX 5 9 1 4
BITMAP
70
88
88
88
88
70
00
00
F8
ENDCHAR

STARTCHAR guillemotright
ENCODING 187
SWIDTH 360 0
DWIDTH 7 0
BBX 5 7 1 0
BITMAP
90
90
48
48
48
90
90
ENDCHAR

STARTCHAR onequarter
ENCODING 188
SWIDTH 360 0
DWIDTH 7 0
BBX 6 14 1 -2
BITMAP
C0
40
40
40
44
E8
10
60
88
18
28
3C
08
08
ENDCHAR

STARTCHAR onehalf
ENCODING 189
SWIDTH 360 0
DWIDTH 7 0
BBX 6 14 1 -2
BITMAP
C0
40
40
40
44
E8
10
60
98
24
04
08
10
3C
ENDCHAR

STARTCHAR threequarters
ENCODING 190
SWIDTH 360 0
DWIDTH 7 0
BBX 7 14 0 -2
BITMAP
60
90
20
10
92
64
08
30
44
0C
14
1E
04
04
ENDCHAR

STARTCHAR questiondown
ENCODING 191
SWIDTH 360 0
DWIDTH 7 0
BBX 5 12 1 -1
BITMAP
20
70
20
00
20
20
40
80
80
88
88
70
ENDCHAR

STARTCHAR Agrave
ENCODING 192
SWIDTH 360 0
DWIDTH 7 0
BBX 7 15 0 0
BITMAP
60
10
08
00
10
10
28
28
28
44
44
7C
44
44
C6
ENDCHAR

STARTCHAR Aacute
ENCODING 193
SWIDTH 360 0
DWIDTH 7 0
BBX 7 15 0 0
BITMAP
0C
10
20
00
10
10
28
28
28
44
44
7C
44
44
C6
ENDCHAR

STARTCHAR Acircumflex
ENCODING 194
SWIDTH 360 0
DWIDTH 7 0
BBX 7 15 0 0
BITMAP
10
28
44
00
10
10
28
28
28
44
44
7C
44
44
C6
ENDCHAR

STARTCHAR Atilde
ENCODING 195
SWIDTH 360 0
DWIDTH 7 0
BBX 7 15 0 0
BITMAP
24
58
00
00
10
10
28
28
28
44
44
7C
44
44
C6
ENDCHAR

STARTCHAR Adieresis
ENCODING 196
SWIDTH 360 0
DWIDTH 7 0
BBX 7 15 0 0
BITMAP
44
44
00
00
10
10
28
28
28
44
44
7C
44
44
C6
ENDCHAR

STARTCHAR Aring
ENCODING 197
SWIDTH 360 0
DWIDTH 7 0
BBX 7 15 0 0
BITMAP
38
44
44
38
10
10
28
28
28
44
44
7C
44
44
C6
ENDCHAR

STARTCHAR AE
ENCODING 198
SWIDTH 360 0
DWIDTH 7 0
BBX 7 11 0 0
BITMAP
7E
52
50
50
54
5C
74
90
92
92
9E
ENDCHAR

STARTCHAR Ccedilla
ENCODING 199
SWIDTH 360 0
DWIDTH 7 0
BBX 5 15 1 -4
BITMAP
68
98
88
80
80
80
80
80
80
88
70
20
10
08
70
ENDCHAR

STARTCHAR Egrave
ENCODING 200
SWIDTH 360 0
DWIDTH 7 0
BBX 6 15 1 0
BITMAP
60
10
08
00
FC
44
44
40
48
78
48
40
44
44
FC
ENDCHAR

STARTCHAR Eacute
ENCODING 201
SWIDTH 360 0
DWIDTH 7 0
BBX 6 15 1 0
BITMAP
18
20
40
00
FC
44
44
40
48
78
48
40
44
44
FC
ENDCHAR

STARTCHAR Ecircumflex
ENCODING 202
SWIDTH 360 0
DWIDTH 7 0
BBX 6 15 1 0
BITMAP
10
28
44
00
FC
44
44
40
48
78
48
40
44
44
FC
ENDCHAR

STARTCHAR Edieresis
ENCODING 203
SWIDTH 360 0
DWIDTH 7 0
BBX 6 15 1 0
BITMAP
44
44
00
00
FC
44
44
40
48
78
48
40
44
44
FC
ENDCHAR

STARTCHAR Igrave
ENCODING 204
SWIDTH 360 0
DWIDTH 7 0
BBX 5 15 1 0
BITMAP
C0
20
10
00
F8
20
20
20
20
20
20
20
20
20
F8
ENDCHAR

STARTCHAR Iacute
ENCODING 205
SWIDTH 360 0
DWIDTH 7 0
BBX 5 15 1 0
BITMAP
18
20
40
00
F8
20
20
20
20
20
20
20
20
20
F8
ENDCHAR

STARTCHAR Icircumflex
ENCODING 206
SWIDTH 360 0
DWIDTH 7 0
BBX 5 15 1 0
BITMAP
20
50
88
00
F8
20
20
20
20
20
20
20
20
20
F8
ENDCHAR

STARTCHAR Idieresis
ENCODING 207
SWIDTH 360 0
DWIDTH 7 0
BBX 5 15 1 0
BITMAP
88
88
00
00
F8
20
20
20
20
20
20
20
20
20
F8
ENDCHAR

STARTCHAR Eth
ENCODING 208
SWIDTH 360 0
DWIDTH 7 0
BBX 6 11 1 0
BITMAP
F8
44
44
44
44
F4
44
44
44
44
F8
ENDCHAR

STARTCHAR Ntilde
ENCODING 209
SWIDTH 360 0
DWIDTH 7 0
BBX 7 15 0 0
BITMAP
24
58
00
00
CE
44
64
64
54
54
54
4C
4C
44
E4
ENDCHAR

STARTCHAR Ograve
ENCODING 210
SWIDTH 360 0
DWIDTH 7 0
BBX 5 15 1 0
BITMAP
60
10
08
00
70
88
88
88
88
88
88
88
88
88
70
ENDCHAR

STARTCHAR Oacute
ENCODING 211
SWIDTH 360 0
DWIDTH 7 0
BBX 5 15 1 0
BITMAP
18
20
40
00
70
88
88
88
88
88
88
88
88
88
70
ENDCHAR

STARTCHAR Ocircumflex
ENCODING 212
SWIDTH 360 0
DWIDTH 7 0
BBX 5 15 1 0
BITMAP
20
50
88
00
70
88
88
88
88
88
88
88
88
88
70
ENDCHAR

STARTCHAR Otilde
ENCODING 213
SWIDTH 360 0
DWIDTH 7 0
BBX 5 15 1 0
BITMAP
48
B0
00
00
70
88
88
88
88
88
88
88
88
88
70
ENDCHAR

STARTCHAR Odieresis
ENCODING 214
SWIDTH 360 0
DWIDTH 7 0
BBX 5 15 1 0
BITMAP
88
88
00
00
70
88
88
88
88
88
88
88
88
88
70
ENDCHAR

STARTCHAR multiply
ENCODING 215
SWIDTH 360 0
DWIDTH 7 0
BBX 5 6 1 2
BITMAP
88
50
20
20
50
88
ENDCHAR

STARTCHAR Oslash
ENCODING 216
SWIDTH 360 0
DWIDTH 7 0
BBX 7 13 0 -1
BITMAP
02
3C
44
4C
4C
54
54
54
54
64
64
78
80
ENDCHAR

STARTCHAR Ugrave
ENCODING 217
SWIDTH 360 0
DWIDTH 7 0
BBX 7 15 0 0
BITMAP
60
10
08
00
EE
44
44
44
44
44
44
44
44
44
38
ENDCHAR

STARTCHAR Uacute
ENCODING 218
SWIDTH 360 0
DWIDTH 7 0
BBX 7 15 0 0
BITMAP
0C
10
20
00
EE
44
44
44
44
44
44
44
44
44
38
ENDCHAR

STARTCHAR Ucircumflex
ENCODING 219
SWIDTH 360 0
DWIDTH 7 0
BBX 7 15 0 0
BITMAP
10
28
44
00
EE
44
44
44
44
44
44
44
44
44
38
ENDCHAR

STARTCHAR Udieresis
ENCODING 220
SWIDTH 360 0
DWIDTH 7 0
BBX 7 15 0 0
BITMAP
44
44
00
00
EE
44
44
44
44
44
44
44
44
44
38
ENDCHAR

STARTCHAR Yacute
ENCODING 221
SWIDTH 360 0
DWIDTH 7 0
BBX 7 15 0 0
BITMAP
0C
10
20
00
EE
44
44
44
28
28
10
10
10
10
38
ENDCHAR

STARTCHAR Thorn
ENCODING 222
SWIDTH 360 0
DWIDTH 7 0
BBX 5 11 1 0
BITMAP
E0
40
70
48
48
48
48
48
70
40
E0
ENDCHAR

STARTCHAR germandbls
ENCODING 223
SWIDTH 360 0
DWIDTH 7 0
BBX 6 12 1 0
BITMAP
38
44
44
44
44
D8
44
44
44
44
44
D8
ENDCHAR

STARTCHAR agrave
ENCODING 224
SWIDTH 360 0
DWIDTH 7 0
BBX 6 14 1 0
BITMAP
C0
20
10
00
00
70
88
08
78
88
88
88
98
6C
ENDCHAR

STARTCHAR aacute
ENCODING 225
SWIDTH 360 0
DWIDTH 7 0
BBX 6 14 1 0
BITMAP
18
20
40
00
00
70
88
08
78
88
88
88
98
6C
ENDCHAR

STARTCHAR acircumflex
ENCODING 226
SWIDTH 360 0
DWIDTH 7 0
BBX 6 14 1 0
BITMAP
20
50
88
00
00
70
88
08
78
88
88
88
98
6C
ENDCHAR

STARTCHAR atilde
ENCODING 227
SWIDTH 360 0
DWIDTH 7 0
BBX 6 13 1 0
BITMAP
48
B0
00
00
70
88
08
78
88
88
88
98
6C
ENDCHAR

STARTCHAR adieresis
ENCODING 228
SWIDTH 360 0
DWIDTH 7 0
BBX 6 13 1 0
BITMAP
88
88
00
00
70
88
08
78
88
88
88
98
6C
ENDCHAR

STARTCHAR aring
ENCODING 229
SWIDTH 360 0
DWIDTH 7 0
BBX 6 14 1 0
BITMAP
30
48
48
30
00
70
88
08
78
88
88
88
98
6C
ENDCHAR

STARTCHAR ae
ENCODING 230
SWIDTH 360 0
DWIDTH 7 0
BBX 7 9 0 0
BITMAP
6C
92
12
12
7E
90
90
92
6C
ENDCHAR

STARTCHAR ccedilla
ENCODING 231
SWIDTH 360 0
DWIDTH 7 0
BBX 5 13 1 -4
BITMAP
68
98
88
80
80
80
80
88
70
20
10
08
70
ENDCHAR

STARTCHAR egrave
ENCODING 232
SWIDTH 360 0
DWIDTH 7 0
BBX 5 14 1 0
BITMAP
C0
20
10
00
00
70
88
88
88
F8
80
80
88
70
ENDCHAR

STARTCHAR eacute
ENCODING 233
SWIDTH 360 0
DWIDTH 7 0
BBX 5 14 1 0
BITMAP
18
20
40
00
00
70
88
88
88
F8
80
80
88
70
ENDCHAR

STARTCHAR ecircumflex
ENCODING 234
SWIDTH 360 0
DWIDTH 7 0
BBX 5 14 1 0
BITMAP
20
50
88
00
00
70
88
88
88
F8
80
80
88
70
ENDCHAR

STARTCHAR edieresis
ENCODING 235
SWIDTH 360 0
DWIDTH 7 0
BBX 5 13 1 0
BITMAP
88
88
00
00
70
88
88
88
F8
80
80
88
70
ENDCHAR

STARTCHAR igrave
ENCODING 236
SWIDTH 360 0
DWIDTH 7 0
BBX 5 14 1 0
BITMAP
C0
20
10
00
00
E0
20
20
20
20
20
20
20
F8
ENDCHAR

STARTCHAR iacute
ENCODING 237
SWIDTH 360 0
DWIDTH 7 0
BBX 5 14 1 0
BITMAP
18
20
40
00
00
E0
20
20
20
20
20
20
20
F8
ENDCHAR

STARTCHAR icircumflex
ENCODING 238
SWIDTH 360 0
DWIDTH 7 0
BBX 5 14 1 0
BITMAP
20
50
88
00
00
E0
20
20
20
20
20
20
20
F8
ENDCHAR

STARTCHAR idieresis
ENCODING 239
SWIDTH 360 0
DWIDTH 7 0
BBX 5 13 1 0
BITMAP
88
88
00
00
E0
20
20
20
20
20
20
20
F8
ENDCHAR

STARTCHAR eth
ENCODING 240
SWIDTH 360 0
DWIDTH 7 0
BBX 5 12 1 0
BITMAP
C0
28
30
50
08
78
88
88
88
88
88
70
ENDCHAR

STARTCHAR ntilde
ENCODING 241
SWIDTH 360 0
DWIDTH 7 0
BBX 7 13 0 0
BITMAP
24
58
00
00
D8
64
44
44
44
44
44
44
C6
ENDCHAR

STARTCHAR ograve
ENCODING 242
SWIDTH 360 0
DWIDTH 7 0
BBX 5 14 1 0
BITMAP
C0
20
10
00
00
70
88
88
88
88
88
88
88
70
ENDCHAR

STARTCHAR oacute
ENCODING 243
SWIDTH 360 0
DWIDTH 7 0
BBX 5 14 1 0
BITMAP
18
20
40
00
00
70
88
88
88
88
88
88
88
70
ENDCHAR

STARTCHAR ocircumflex
ENCODING 244
SWIDTH 360 0
DWIDTH 7 0
BBX 5 14 1 0
BITMAP
20
50
88
00
00
70
88
88
88
88
88
88
88
70
ENDCHAR

STARTCHAR otilde
ENCODING 245
SWIDTH 360 0
DWIDTH 7 0
BBX 5 13 1 0
BITMAP
48
B0
00
00
70
88
88
88
88
88
88
88
70
ENDCHAR

STARTCHAR odieresis
ENCODING 246
SWIDTH 360 0
DWIDTH 7 0
BBX 5 13 1 0
BITMAP
88
88
00
00
70
88
88
88
88
88
88
88
70
ENDCHAR

STARTCHAR divide
ENCODING 247
SWIDTH 360 0
DWIDTH 7 0
BBX 5 7 1 2
BITMAP
20
20
00
F8
00
20
20
ENDCHAR

STARTCHAR oslash
ENCODING 248
SWIDTH 360 0
DWIDTH 7 0
BBX 7 11 0 -1
BITMAP
02
3C
44
4C
4C
54
54
64
64
78
80
ENDCHAR

STARTCHAR ugrave
ENCODING 249
SWIDTH 360 0
DWIDTH 7 0
BBX 7 14 0 0
BITMAP
60
10
08
00
00
CC
44
44
44
44
44
44
4C
36
ENDCHAR

STARTCHAR uacute
ENCODING 250
SWIDTH 360 0
DWIDTH 7 0
BBX 7 14 0 0
BITMAP
0C
10
20
00
00
CC
44
44
44
44
44
44
4C
36
ENDCHAR

STARTCHAR ucircumflex
ENCODING 251
SWIDTH 360 0
DWIDTH 7 0
BBX 7 14 0 0
BITMAP
10
28
44
00
00
CC
44
44
44
44
44
44
4C
36
ENDCHAR

STARTCHAR udieresis
ENCODING 252
SWIDTH 360 0
DWIDTH 7 0
BBX 7 13 0 0
BITMAP
44
44
00
00
CC
44
44
44
44
44
44
4C
36
ENDCHAR

STARTCHAR yacute
ENCODING 253
SWIDTH 360 0
DWIDTH 7 0
BBX 7 17 0 -3
BITMAP
0C
10
20
00
00
C6
44
44
44
28
28
28
10
10
20
20
F0
ENDCHAR

STARTCHAR thorn
ENCODING 254
SWIDTH 360 0
DWIDTH 7 0
BBX 6 15 1 -3
BITMAP
C0
40
40
58
64
44
44
44
44
44
64
58
40
40
F0
ENDCHAR

STARTCHAR ydieresis
ENCODING 255
SWIDTH 360 0
DWIDTH 7 0
BBX 7 16 0 -3
BITMAP
44
44
00
00
C6
44
44
44
28
28
28
10
10
20
20
F0
ENDCHAR
ENDFONT
